<?xml version="1.0" encoding="UTF-8" standalone="no"?>
<svg
   version="1.1"
   viewBox="-10 0 1300 1600"
   id="svg1"
   sodipodi:docname="nine.tf.ss01_Inter-Bold.svg"
   width="1300"
   height="1600"
   inkscape:version="1.3.2 (091e20e, 2023-11-25, custom)"
   xmlns:inkscape="http://www.inkscape.org/namespaces/inkscape"
   xmlns:sodipodi="http://sodipodi.sourceforge.net/DTD/sodipodi-0.dtd"
   xmlns="http://www.w3.org/2000/svg"
   xmlns:svg="http://www.w3.org/2000/svg">
  <defs
     id="defs1" />
  <sodipodi:namedview
     id="namedview1"
     pagecolor="#ffffff"
     bordercolor="#000000"
     borderopacity="0.25"
     inkscape:showpageshadow="2"
     inkscape:pageopacity="0.0"
     inkscape:pagecheckerboard="0"
     inkscape:deskcolor="#d1d1d1"
     inkscape:zoom="0.56140411"
     inkscape:cx="671.53053"
     inkscape:cy="419.48392"
     inkscape:window-width="1920"
     inkscape:window-height="1009"
     inkscape:window-x="3832"
     inkscape:window-y="-8"
     inkscape:window-maximized="1"
     inkscape:current-layer="svg1" />
  <g
     transform="matrix(1.026039,0,0,-1.026039,-37.412716,1574.957)"
     id="g1"
     style="fill:#ffffff;fill-opacity:1;stroke:#000000;stroke-width:48.7311;stroke-dasharray:none;stroke-opacity:1">
    <path
       fill="currentColor"
       d="m 657,1510 q 148,0 270.5,-60 122.5,-60 196,-172.5 Q 1197,1165 1197,1007 1197,890 1150,773 1103,656 1005,511 L 660,0 H 352 L 739,567 Q 705,555 667,548.5 629,542 587,542 450,542 346,597.5 242,653 184,756.5 126,860 126,1003 q 0,152 69,266 69,114 188.5,177.5 Q 503,1510 657,1510 Z m 2,-240 Q 551,1270 481.5,1196.5 412,1123 412,1010 412,896 481.5,823.5 551,751 659,751 766,751 835.5,823.5 905,896 905,1009 905,1123 835.5,1196.5 766,1270 659,1270 Z"
       id="path1"
       style="fill:#ffffff;fill-opacity:1;stroke:#000000;stroke-width:48.7311;stroke-dasharray:none;stroke-opacity:1" />
  </g>
</svg>
