<?xml version="1.0" encoding="UTF-8" standalone="no"?>
<svg
   version="1.1"
   viewBox="-10 0 1300 1600"
   id="svg1"
   sodipodi:docname="five.tf_Inter-Bold.svg"
   width="1300"
   height="1600"
   inkscape:version="1.3.2 (091e20e, 2023-11-25, custom)"
   xmlns:inkscape="http://www.inkscape.org/namespaces/inkscape"
   xmlns:sodipodi="http://sodipodi.sourceforge.net/DTD/sodipodi-0.dtd"
   xmlns="http://www.w3.org/2000/svg"
   xmlns:svg="http://www.w3.org/2000/svg">
  <defs
     id="defs1" />
  <sodipodi:namedview
     id="namedview1"
     pagecolor="#ffffff"
     bordercolor="#000000"
     borderopacity="0.25"
     inkscape:showpageshadow="2"
     inkscape:pageopacity="0.0"
     inkscape:pagecheckerboard="0"
     inkscape:deskcolor="#d1d1d1"
     inkscape:zoom="0.19848633"
     inkscape:cx="1234.3419"
     inkscape:cy="1569.3776"
     inkscape:window-width="1920"
     inkscape:window-height="1009"
     inkscape:window-x="3832"
     inkscape:window-y="-8"
     inkscape:window-maximized="1"
     inkscape:current-layer="svg1" />
  <g
     transform="matrix(1.0258389,0,0,-1.0258389,-32.483781,1553.7096)"
     id="g1"
     style="fill:#ffffff;fill-opacity:1;stroke:#000000;stroke-width:48.8946;stroke-dasharray:none;stroke-opacity:1">
    <path
       fill="currentColor"
       d="M 648,-20 Q 495,-20 375.5,36.5 256,93 186.5,192 117,291 113,418 h 298 q 4,-87 73,-141.5 69,-54.5 164,-54.5 112,0 184,74 72,74 72,192 0,119 -73.5,194.5 Q 757,758 643,758 576,758 514.5,731 453,704 419,660 l -274,48 71,782 h 902 V 1238 H 469 L 431,861 h 8 q 40,54 118.5,89 78.5,35 174.5,35 135,0 240.5,-63 Q 1078,859 1139,748.5 1200,638 1200,495 1200,345 1130.5,229 1061,113 936.5,46.5 812,-20 648,-20 Z"
       id="path1"
       style="fill:#ffffff;fill-opacity:1;stroke:#000000;stroke-width:48.8946;stroke-dasharray:none;stroke-opacity:1" />
  </g>
</svg>
