<?xml version="1.0" encoding="UTF-8" standalone="no"?>
<svg
   version="1.1"
   viewBox="-10 0 1100.0001 1600"
   id="svg1"
   sodipodi:docname="cursor_3.svg"
   width="1100"
   height="1600"
   inkscape:version="1.3.2 (091e20e, 2023-11-25, custom)"
   xmlns:inkscape="http://www.inkscape.org/namespaces/inkscape"
   xmlns:sodipodi="http://sodipodi.sourceforge.net/DTD/sodipodi-0.dtd"
   xmlns="http://www.w3.org/2000/svg"
   xmlns:svg="http://www.w3.org/2000/svg">
  <defs
     id="defs1" />
  <sodipodi:namedview
     id="namedview1"
     pagecolor="#ffffff"
     bordercolor="#000000"
     borderopacity="0.25"
     inkscape:showpageshadow="2"
     inkscape:pageopacity="0.0"
     inkscape:pagecheckerboard="0"
     inkscape:deskcolor="#d1d1d1"
     inkscape:zoom="0.25"
     inkscape:cx="1038"
     inkscape:cy="970"
     inkscape:window-width="1920"
     inkscape:window-height="1009"
     inkscape:window-x="1912"
     inkscape:window-y="-8"
     inkscape:window-maximized="1"
     inkscape:current-layer="svg1" />
  <g
     transform="matrix(1.0241258,0,0,-1.0260019,-110.84574,1554.0828)"
     id="g2-9"
     style="fill:#ffffff;fill-opacity:1;stroke:#000000;stroke-width:48.77746975;stroke-dasharray:none;stroke-opacity:1">
    <path
       fill="currentColor"
       d="M 634,-20 Q 500,-20 387,27 274,74 204,162.5 134,251 125,376 H 319 Q 330,264 420,205.5 510,147 637,147 q 137,0 229.5,69 92.5,69 92.5,205 0,80 -37.5,148 Q 884,637 802,679 720,721 585,721 H 463 v 151 l 377,439 v 12 H 199 v 167 h 891 V 1351 L 649,843 q 154,9 266,-47 112,-56 172.5,-155.5 Q 1148,541 1148,420 1148,292 1082,192.5 1016,93 900.5,36.5 785,-20 634,-20 Z"
       id="path1-5"
       style="fill:#ffffff;fill-opacity:1;stroke:#000000;stroke-width:48.77746975;stroke-dasharray:none;stroke-opacity:1" />
  </g>
</svg>
