<?xml version="1.0" encoding="UTF-8" standalone="no"?>
<svg
   version="1.1"
   viewBox="-10 0 1100.0001 1600"
   id="svg1"
   sodipodi:docname="cursor_6.svg"
   width="1100"
   height="1600"
   inkscape:version="1.3.2 (091e20e, 2023-11-25, custom)"
   xmlns:inkscape="http://www.inkscape.org/namespaces/inkscape"
   xmlns:sodipodi="http://sodipodi.sourceforge.net/DTD/sodipodi-0.dtd"
   xmlns="http://www.w3.org/2000/svg"
   xmlns:svg="http://www.w3.org/2000/svg">
  <defs
     id="defs1" />
  <sodipodi:namedview
     id="namedview1"
     pagecolor="#ffffff"
     bordercolor="#000000"
     borderopacity="0.25"
     inkscape:showpageshadow="2"
     inkscape:pageopacity="0.0"
     inkscape:pagecheckerboard="0"
     inkscape:deskcolor="#d1d1d1"
     inkscape:zoom="0.5"
     inkscape:cx="371"
     inkscape:cy="739"
     inkscape:window-width="1920"
     inkscape:window-height="1009"
     inkscape:window-x="1912"
     inkscape:window-y="-8"
     inkscape:window-maximized="1"
     inkscape:current-layer="svg1" />
  <g
     transform="matrix(1.1061817,0,0,-1.0273297,-193.85818,1555.0915)"
     id="g2-0"
     style="fill:#ffffff;fill-opacity:1;stroke:#000000;stroke-width:46.90313239;stroke-dasharray:none;stroke-opacity:1">
    <path
       fill="currentColor"
       d="M 664,-20 Q 526,-20 419,43 312,106 251,217.5 190,329 190,473 190,579 236,697.5 282,816 402,993 l 337,497 H 944 L 513,861 q 36,25 80.5,39.5 Q 638,915 688,915 824,915 924.5,858.5 1025,802 1081,699.5 1137,597 1137,458 1137,320 1075.5,212 1014,104 907.5,42 801,-20 664,-20 Z m 0,163 q 128,0 210,89.5 82,89.5 82,225.5 0,140 -82,227.5 Q 792,773 664,773 535,773 452.5,686 370,599 370,462 q 0,-139 82,-229 82,-90 212,-90 z"
       id="path1-93"
       style="fill:#ffffff;fill-opacity:1;stroke:#000000;stroke-width:46.90313239;stroke-dasharray:none;stroke-opacity:1" />
  </g>
</svg>
