<?xml version="1.0" encoding="UTF-8" standalone="no"?>
<svg
   version="1.1"
   viewBox="-10 0 1100.0001 1600"
   id="svg1"
   sodipodi:docname="cursor_9.svg"
   width="1100"
   height="1600"
   inkscape:version="1.3.2 (091e20e, 2023-11-25, custom)"
   xmlns:inkscape="http://www.inkscape.org/namespaces/inkscape"
   xmlns:sodipodi="http://sodipodi.sourceforge.net/DTD/sodipodi-0.dtd"
   xmlns="http://www.w3.org/2000/svg"
   xmlns:svg="http://www.w3.org/2000/svg">
  <defs
     id="defs1" />
  <sodipodi:namedview
     id="namedview1"
     pagecolor="#ffffff"
     bordercolor="#000000"
     borderopacity="0.25"
     inkscape:showpageshadow="2"
     inkscape:pageopacity="0.0"
     inkscape:pagecheckerboard="0"
     inkscape:deskcolor="#d1d1d1"
     inkscape:zoom="0.1767767"
     inkscape:cx="1100.2582"
     inkscape:cy="1586.7476"
     inkscape:window-width="1920"
     inkscape:window-height="1009"
     inkscape:window-x="1912"
     inkscape:window-y="-8"
     inkscape:window-maximized="1"
     inkscape:current-layer="svg1" />
  <g
     transform="matrix(1.1062608,0,0,-1.0274115,-193.99461,1575.6764)"
     id="g2-5"
     style="fill:#ffffff;fill-opacity:1;stroke:#000000;stroke-width:46.8995884;stroke-dasharray:none;stroke-opacity:1">
    <path
       fill="currentColor"
       d="m 663,1510 q 138,0 245,-63 107,-63 168,-174.5 61,-111.5 61,-255.5 0,-106 -46,-224.5 Q 1045,674 925,497 L 588,0 H 383 L 814,629 Q 778,604 733.5,589.5 689,575 639,575 504,575 403,631.5 302,688 246,790.5 190,893 190,1032 q 0,139 61.5,246.5 Q 313,1386 420,1448 q 107,62 243,62 z m 0,-163 q -128,0 -210,-89 -82,-89 -82,-226 0,-140 82,-227.5 82,-87.5 210,-87.5 129,0 211.5,87 82.5,87 82.5,224 0,140 -82,229.5 -82,89.5 -212,89.5 z"
       id="path1-3"
       style="fill:#ffffff;fill-opacity:1;stroke:#000000;stroke-width:46.8995884;stroke-dasharray:none;stroke-opacity:1" />
  </g>
</svg>
