<?xml version="1.0" encoding="UTF-8" standalone="no"?>
<svg
   version="1.1"
   viewBox="-10 0 1300 1600"
   id="svg1"
   sodipodi:docname="eight.tf_Inter-Bold.svg"
   width="1300"
   height="1600"
   inkscape:version="1.3.2 (091e20e, 2023-11-25, custom)"
   xmlns:inkscape="http://www.inkscape.org/namespaces/inkscape"
   xmlns:sodipodi="http://sodipodi.sourceforge.net/DTD/sodipodi-0.dtd"
   xmlns="http://www.w3.org/2000/svg"
   xmlns:svg="http://www.w3.org/2000/svg">
  <defs
     id="defs1" />
  <sodipodi:namedview
     id="namedview1"
     pagecolor="#ffffff"
     bordercolor="#000000"
     borderopacity="0.25"
     inkscape:showpageshadow="2"
     inkscape:pageopacity="0.0"
     inkscape:pagecheckerboard="0"
     inkscape:deskcolor="#d1d1d1"
     inkscape:zoom="0.14035103"
     inkscape:cx="691.12425"
     inkscape:cy="1492.6859"
     inkscape:window-width="1920"
     inkscape:window-height="1009"
     inkscape:window-x="3832"
     inkscape:window-y="-8"
     inkscape:window-maximized="1"
     inkscape:current-layer="svg1" />
  <g
     transform="matrix(1.0125554,0,0,-1.0125554,-30.979898,1554.6205)"
     id="g1"
     style="fill:#ffffff;fill-opacity:1;stroke:#000000;stroke-width:49.38;stroke-dasharray:none;stroke-opacity:1">
    <path
       fill="currentColor"
       d="M 661,-20 Q 494,-20 365,34.5 236,89 162.5,184 89,279 89,400 q 0,93 42,171.5 42,78.5 115,131 73,52.5 164,67.5 v 9 q -119,25 -193,117 -74,92 -74,214 0,115 67,205.5 67,90.5 184,142.5 117,52 267,52 149,0 266.5,-52 117.5,-52 185,-142.5 67.5,-90.5 67.5,-205.5 0,-122 -75,-214 -75,-92 -191,-117 v -9 q 89,-15 161.5,-67.5 72.5,-52.5 116,-131 Q 1235,493 1235,400 1235,279 1161,184 1087,89 957.5,34.5 828,-20 661,-20 Z m 0,226 q 114,0 184.5,60.5 Q 916,327 916,424 916,523 843.5,586.5 771,650 661,650 550,650 478,586.5 406,523 406,424 q 0,-96 70,-157 70,-61 185,-61 z m 0,668 q 95,0 157.5,57 62.5,57 62.5,146 0,89 -61.5,144.5 Q 758,1277 661,1277 q -97,0 -158.5,-55 -61.5,-55 -61.5,-145 0,-89 62,-146 62,-57 158,-57 z"
       id="path1"
       style="fill:#ffffff;fill-opacity:1;stroke:#000000;stroke-width:49.38;stroke-dasharray:none;stroke-opacity:1" />
  </g>
</svg>
