<?xml version="1.0" encoding="UTF-8" standalone="no"?>
<svg
   height="1600"
   viewBox="0 0 1600 1600"
   width="1600"
   version="1.1"
   id="svg1"
   sodipodi:docname="node_hidden_1.svg"
   inkscape:version="1.4.2 (ebf0e940d0, 2025-05-08)"
   xmlns:inkscape="http://www.inkscape.org/namespaces/inkscape"
   xmlns:sodipodi="http://sodipodi.sourceforge.net/DTD/sodipodi-0.dtd"
   xmlns="http://www.w3.org/2000/svg"
   xmlns:svg="http://www.w3.org/2000/svg">
  <defs
     id="defs1" />
  <sodipodi:namedview
     pagecolor="#303030"
     showgrid="true"
     id="namedview1"
     bordercolor="#000000"
     borderopacity="0.25"
     inkscape:showpageshadow="2"
     inkscape:pageopacity="0.0"
     inkscape:pagecheckerboard="0"
     inkscape:deskcolor="#d1d1d1"
     inkscape:zoom="0.266875"
     inkscape:cx="878.68852"
     inkscape:cy="1082.904"
     inkscape:window-width="1280"
     inkscape:window-height="1011"
     inkscape:window-x="20"
     inkscape:window-y="20"
     inkscape:window-maximized="0"
     inkscape:current-layer="svg1">
    <inkscape:grid
       id="grid5"
       units="px"
       spacingx="100"
       spacingy="100"
       color="#4772b3"
       opacity="0.2"
       visible="true"
       originx="0"
       originy="0" />
  </sodipodi:namedview>
  <path
     d="M 407.24434,0 C 222.56217,0 72.72726,149.91709 72.72726,334.51708 v 930.96582 c 0,184.5999 149.83491,334.5171 334.51708,334.5171 h 785.51136 c 184.6821,0 334.5177,-149.9172 334.5177,-334.5171 V 334.51708 C 1527.2734,149.91709 1377.4378,0 1192.7557,0 Z m 0,227.98255 h 785.51136 c 104.3599,0 189.0626,84.67054 189.0626,189.06327 v 848.43708 c 0,104.3105 -84.7027,189.0618 -189.0626,189.0618 H 407.24434 c -104.35999,0 -189.06254,-84.7513 -189.06254,-189.0618 V 417.04582 c 0,-104.39273 84.70255,-189.06327 189.06254,-189.06327 z m 101.70473,541.47781 c -40.13018,0 -72.58545,32.58108 -72.58545,72.7272 0,40.14551 32.45527,72.7266 72.58545,72.7266 h 581.81753 c 40.1715,0 72.7273,-32.58109 72.7273,-72.7266 0,-40.14612 -32.5558,-72.7272 -72.7273,-72.7272 z"
     style="fill:#ffffff;stroke-width:77.2509"
     id="path1" />
</svg>
